<?xml version="1.0" standalone="no"?>
<!DOCTYPE svg PUBLIC "-//W3C//DTD SVG 20010904//EN"
 "http://www.w3.org/TR/2001/REC-SVG-20010904/DTD/svg10.dtd">
<svg version="1.0" xmlns="http://www.w3.org/2000/svg"
 width="300.000000pt" height="300.000000pt" viewBox="0 0 300.000000 300.000000"
 preserveAspectRatio="xMidYMid meet">
<metadata>
Created by potrace 1.10, written by Peter Selinger 2001-2011
</metadata>
<g transform="translate(0.000000,300.000000) scale(0.100000,-0.100000)"
fill="#000000" stroke="none">
<path d="M1305 2487 c-48 -78 -47 -77 -41 -77 4 0 65 88 82 118 1 2 53 -30
117 -70 l115 -73 -131 -5 c-102 -4 -137 -2 -155 9 -18 11 -28 11 -48 2 -14 -6
-35 -11 -47 -12 -21 0 -21 -1 -2 -8 11 -5 23 -7 28 -4 11 6 8 -15 -3 -22 -5
-3 -10 0 -10 7 0 7 -9 2 -20 -12 -26 -33 -25 -52 1 -20 l20 25 -6 -25 -6 -25
20 25 c11 14 21 28 21 33 0 4 13 7 30 7 57 0 0 -53 -70 -65 -18 -3 -38 -9 -43
-12 -7 -4 -8 1 -3 13 4 10 10 42 13 70 5 44 2 55 -16 73 -30 30 -86 29 -106
-3 -8 -13 -13 -31 -9 -40 5 -13 -1 -16 -31 -16 l-36 0 2 -47 c1 -27 -2 -56 -6
-65 -14 -33 -2 -53 35 -56 19 -2 41 -11 49 -20 12 -15 12 -14 6 7 -4 13 -3 21
2 18 5 -3 22 5 39 19 l29 24 -45 -20 c-25 -11 -55 -20 -68 -20 -26 0 -39 24
-23 44 15 18 77 27 107 16 17 -7 23 -7 19 0 -3 6 -1 10 5 10 6 0 -6 17 -27 38
l-38 37 44 3 c24 2 46 1 49 -3 3 -3 0 -25 -6 -48 -7 -23 -14 -52 -16 -65 -2
-13 -12 -33 -23 -45 -29 -32 -39 -163 -16 -197 16 -22 17 -22 24 -4 13 32 10
72 -6 78 -8 3 -15 12 -15 21 0 13 4 14 21 5 16 -9 26 -8 46 5 21 14 24 23 21
55 -3 38 -3 39 15 19 14 -14 29 -19 54 -17 47 4 62 27 40 62 -15 22 -25 26
-67 26 -28 0 -50 5 -50 10 0 6 11 10 25 10 41 0 93 27 112 57 l18 28 145 -5
145 -5 180 -116 180 -117 5 -203 c3 -139 8 -193 13 -169 5 20 7 109 5 198 -2
120 0 161 9 158 6 -3 50 -30 97 -60 l86 -55 -74 -113 c-79 -123 -100 -158 -91
-158 5 0 80 112 158 237 l26 41 -104 64 -104 63 -1 128 0 127 -195 0 -196 0
-114 75 c-166 108 -146 104 -190 32z m-167 -59 c7 -7 12 -20 12 -30 0 -15 -8
-18 -44 -18 -49 0 -61 9 -51 40 7 23 63 28 83 8z m-83 -78 c3 -11 16 -28 29
-37 23 -18 22 -18 -41 -18 l-63 0 0 38 c0 36 1 37 34 37 26 0 36 -5 41 -20z
m925 -72 c0 -51 3 -104 7 -117 5 -20 3 -23 -10 -18 -13 5 -341 211 -356 224
-2 1 77 3 177 3 l182 0 0 -92z m-825 -39 c-4 -12 -3 -19 2 -16 10 6 8 -77 -2
-93 -7 -12 -42 -13 -49 -2 -3 5 4 24 16 43 l20 34 -22 -20 -23 -20 18 34 c27
54 52 78 40 40z m103 -5 c36 -25 28 -44 -18 -44 -34 0 -42 4 -55 30 l-16 30
34 0 c18 0 43 -7 55 -16z"/>
<path d="M1388 2283 c-9 -10 -19 -29 -23 -43 l-8 -25 26 28 c14 15 32 27 39
27 7 0 51 -18 97 -41 51 -24 101 -41 125 -42 38 -2 41 0 44 26 2 16 1 36 -2
44 -6 14 -8 14 -24 -1 -27 -24 -69 -20 -140 14 -72 34 -112 38 -134 13z"/>
<path d="M1406 2237 c-10 -7 -20 -31 -23 -57 -5 -40 -4 -43 9 -27 13 17 15 17
27 3 9 -10 11 -27 7 -48 -34 -171 -1 -245 119 -263 59 -8 70 -24 51 -69 -18
-43 -5 -47 23 -7 39 55 33 97 -16 106 -117 20 -153 52 -153 130 0 36 14 76 22
65 2 -3 15 -21 30 -40 15 -20 56 -52 99 -75 50 -28 82 -53 103 -83 l31 -44 3
30 c5 45 -22 78 -86 108 -69 32 -123 74 -141 107 -7 14 -21 53 -30 87 -18 71
-45 99 -75 77z"/>
<path d="M974 2176 c-59 -27 -94 -67 -94 -107 0 -40 15 -44 30 -8 7 16 22 34
32 40 28 15 98 80 98 90 0 13 -9 11 -66 -15z"/>
<path d="M1330 2169 c0 -29 -23 -42 -95 -54 -77 -13 -112 -44 -83 -73 16 -16
28 -15 28 3 0 18 43 41 95 50 64 12 90 46 65 85 -8 12 -10 9 -10 -11z"/>
<path d="M1504 2156 c10 -73 45 -111 160 -165 128 -62 160 -95 153 -158 -4
-37 -2 -42 10 -31 22 18 43 64 43 93 0 16 -12 38 -28 55 -28 27 -28 29 -10 44
25 22 23 51 -11 122 -31 65 -58 96 -38 44 15 -38 -4 -59 -60 -67 -85 -11 -191
28 -214 81 -7 16 -8 12 -5 -18z m297 -98 c7 -70 -14 -82 -86 -51 -81 34 -88
43 -34 44 24 1 55 5 69 9 37 12 50 11 51 -2z"/>
<path d="M1040 2114 c0 -73 -17 -109 -50 -109 -21 0 -25 5 -25 29 0 16 6 31
12 33 18 6 29 -27 13 -37 -9 -5 -9 -9 -1 -14 16 -10 26 24 12 43 -6 9 -14 24
-18 35 -5 15 -9 11 -24 -20 -9 -21 -16 -41 -15 -44 1 -3 8 -17 15 -32 13 -25
9 -33 -78 -169 l-91 -143 90 -58 90 -58 0 -105 0 -105 153 1 c83 1 226 5 317
9 l165 6 -128 2 c-86 1 -126 5 -122 12 4 7 -2 9 -17 5 -47 -11 -205 -25 -280
-25 l-78 0 0 101 c0 77 3 98 13 93 6 -5 62 -40 122 -80 123 -79 160 -101 151
-86 -3 6 -67 49 -141 97 l-135 87 0 192 c0 150 3 196 14 212 23 30 30 9 17
-52 -18 -90 -12 -194 10 -194 5 0 9 13 9 28 0 16 7 53 16 82 11 38 14 70 9
105 -3 27 -8 86 -11 129 -5 95 -14 114 -14 30z m-60 -349 l0 -185 -84 56 -85
56 56 87 c31 47 68 105 82 129 14 23 27 42 28 42 2 0 3 -83 3 -185z"/>
<path d="M1260 1990 c-12 -8 -10 -10 11 -10 14 0 48 -11 75 -25 58 -29 54 -29
54 -11 0 16 -76 56 -106 56 -10 0 -26 -5 -34 -10z"/>
<path d="M1240 1933 c0 -5 6 -15 12 -21 10 -10 10 -15 -1 -21 -11 -7 -7 -12
15 -24 33 -17 77 -12 95 10 11 12 8 13 -13 8 -28 -7 -68 9 -68 27 0 7 13 8 37
5 26 -5 33 -3 26 4 -14 14 -103 25 -103 12z"/>
<path d="M1745 1915 c14 -38 17 -73 6 -79 -6 -4 -11 -15 -11 -25 0 -16 -38
-51 -54 -51 -3 0 -3 13 0 30 7 33 -11 86 -31 94 -10 3 -10 -1 -2 -23 16 -43 0
-79 -59 -138 -69 -68 -70 -93 -4 -137 34 -22 44 -20 20 4 -40 40 -18 75 75
124 59 30 75 43 98 76 26 37 21 75 -14 112 -21 23 -29 27 -24 13z"/>
<path d="M1157 1913 c-13 -13 -7 -51 13 -74 10 -13 19 -19 20 -13 0 5 -5 15
-11 21 -5 5 -11 24 -11 42 -1 34 -1 34 -11 24z"/>
<path d="M1669 1682 c-71 -36 -77 -62 -19 -92 42 -21 70 -22 31 0 -31 16 -26
44 15 80 20 17 34 33 32 36 -3 2 -29 -8 -59 -24z"/>
<path d="M1951 1692 c-20 -15 -25 -31 -29 -80 l-4 -60 -29 10 c-35 12 -89 63
-89 84 0 11 8 14 27 12 20 -2 34 -14 50 -43 16 -28 23 -34 23 -20 0 33 -37 84
-66 91 -21 6 -31 2 -45 -15 -17 -21 -17 -25 -4 -51 9 -17 34 -38 63 -52 37
-17 53 -32 65 -61 34 -76 13 -157 -30 -114 -14 13 -13 18 7 45 16 21 20 36 15
49 -5 10 -7 23 -6 28 1 6 -11 -5 -28 -22 -33 -36 -70 -43 -95 -17 -12 12 -13
20 -6 35 12 21 17 22 74 20 22 -1 37 2 33 6 -4 3 -62 7 -130 8 -98 1 -129 5
-157 20 -41 21 -59 42 -60 70 -1 17 -3 15 -16 -8 -32 -59 7 -116 109 -162 65
-28 107 -67 107 -98 0 -12 -10 -32 -22 -45 -21 -23 -18 -23 37 8 33 18 71 43
85 56 25 23 26 23 37 4 11 -16 9 -19 -15 -23 -15 -2 -7 -4 18 -4 25 0 51 5 59
11 12 9 12 8 3 -10 -6 -12 -18 -24 -27 -28 -10 -3 -15 -19 -15 -47 l0 -42 25
23 c14 13 25 34 25 47 0 12 5 42 12 67 10 37 9 49 -5 79 -25 52 -21 66 8 27
29 -39 31 -66 10 -148 -17 -66 -10 -103 24 -121 26 -14 46 -6 60 25 10 23 1
64 -15 64 -32 0 -59 -50 -34 -65 6 -4 9 3 7 17 -1 15 4 23 16 26 15 3 18 -2
15 -25 -3 -31 -30 -42 -53 -23 -20 16 -20 94 0 113 9 10 13 27 9 53 -4 34 -3
36 6 15 6 -14 27 -45 47 -69 20 -24 42 -60 48 -80 12 -33 13 -34 24 -14 27 50
-1 107 -74 152 -37 23 -50 48 -15 30 47 -25 84 17 52 60 -24 32 -77 50 -116
39 -32 -9 -51 -3 -20 6 66 21 102 52 118 101 15 49 -68 84 -113 46z m32 -9
c-4 -10 -17 -34 -31 -53 l-24 -35 7 35 c5 29 35 70 51 70 2 0 0 -8 -3 -17z
m56 -7 c13 -16 2 -55 -23 -75 -14 -12 -16 -9 -16 31 0 58 14 74 39 44z m-51
-63 c-2 -28 -9 -41 -28 -50 -35 -17 -38 5 -8 51 30 46 40 45 36 -1z m2 -108
c0 -23 -2 -24 -20 -15 -11 6 -20 17 -20 25 0 8 9 15 20 15 15 0 20 -7 20 -25z
m60 -3 c40 -34 33 -53 -18 -50 -36 3 -37 4 -33 41 1 20 6 37 10 37 4 0 22 -13
41 -28z m-300 -31 c11 -17 30 -33 42 -37 l22 -7 -22 -17 c-21 -18 -23 -17 -59
19 -21 20 -49 44 -63 53 l-25 17 42 0 c35 1 45 -4 63 -28z"/>
<path d="M1381 1671 c-18 -12 24 -41 59 -41 30 0 73 27 65 41 -8 11 -105 12
-124 0z"/>
<path d="M1280 1651 c0 -13 102 -242 106 -238 2 2 0 17 -5 34 -11 39 6 75 39
83 23 5 22 7 -22 29 -26 12 -63 40 -82 62 -20 21 -36 35 -36 30z"/>
<path d="M1622 1432 c23 -61 -17 -91 -142 -105 -84 -9 -91 -8 -125 13 -20 12
-38 20 -41 17 -3 -3 18 -19 48 -36 41 -24 67 -31 113 -33 l60 -2 -50 -3 -49
-4 40 -27 c23 -15 72 -48 110 -74 l69 -48 43 68 c52 81 74 122 67 122 -3 0
-30 -38 -61 -85 l-55 -85 -60 41 c-57 38 -60 42 -44 59 9 10 37 23 62 30 53
15 103 54 103 80 0 23 -31 61 -68 83 l-30 17 10 -28z"/>
<path d="M810 1020 c0 -5 7 -10 15 -10 13 0 15 -15 13 -92 -2 -68 -6 -92 -15
-91 -7 2 -13 -3 -13 -10 0 -8 15 -12 45 -11 42 1 80 14 42 14 -14 0 -17 10
-17 50 0 28 3 50 8 50 21 -1 36 -23 41 -62 l6 -43 118 -3 117 -3 0 36 c0 19
-4 35 -10 35 -5 0 -10 -8 -10 -18 0 -26 -20 -42 -52 -42 -27 0 -28 2 -28 50 0
39 3 50 16 50 9 0 18 -9 21 -20 9 -34 22 -22 21 20 0 40 -11 53 -22 25 -3 -8
-12 -15 -21 -15 -11 0 -15 11 -15 40 0 38 2 40 30 40 23 0 33 -6 40 -25 13
-35 20 -31 20 10 l0 35 -80 0 c-47 0 -80 -4 -80 -10 0 -5 7 -10 15 -10 12 0
15 -17 15 -95 l0 -96 -27 4 c-24 3 -28 9 -31 38 -2 19 -11 40 -20 47 -16 12
-16 14 1 23 25 15 22 64 -5 83 -25 18 -138 22 -138 6z m120 -30 c14 -26 -3
-60 -30 -60 -17 0 -20 7 -20 40 0 33 3 40 20 40 10 0 24 -9 30 -20z"/>
<path d="M1180 1020 c0 -5 7 -10 15 -10 12 0 15 -17 15 -95 0 -79 -3 -95 -16
-95 -8 0 -13 -3 -10 -8 2 -4 36 -5 75 -2 89 7 112 26 119 99 4 47 2 53 -31 86
-33 33 -39 35 -101 35 -37 0 -66 -4 -66 -10z m140 -30 c38 -38 21 -152 -24
-164 -45 -12 -46 -10 -46 89 0 95 0 95 25 95 14 0 34 -9 45 -20z"/>
<path d="M1470 1020 c0 -5 7 -10 15 -10 12 0 15 -17 15 -95 0 -78 -3 -95 -15
-95 -8 0 -15 -4 -15 -8 0 -9 88 -7 97 2 4 3 -1 6 -10 6 -14 0 -17 10 -17 50 0
54 1 55 31 40 12 -7 19 -21 19 -40 0 -15 3 -35 6 -44 7 -19 59 -22 70 -4 5 7
2 9 -9 5 -17 -6 -27 11 -27 48 0 12 -7 28 -16 36 -14 11 -14 13 0 21 24 14 20
64 -6 82 -25 18 -138 22 -138 6z m122 -38 c6 -41 0 -52 -28 -52 -21 0 -24 4
-24 40 0 35 3 40 24 40 18 0 25 -6 28 -28z"/>
<path d="M1707 1010 c-62 -49 -54 -160 15 -196 42 -22 67 -17 104 20 28 28 34
42 34 76 0 23 -5 51 -11 63 -29 57 -95 74 -142 37z m97 -22 c19 -27 21 -103 3
-138 -17 -34 -60 -39 -81 -8 -18 25 -21 103 -6 142 13 34 62 36 84 4z"/>
<path d="M1912 1014 c-21 -15 -28 -47 -16 -78 3 -8 28 -22 55 -31 39 -13 49
-21 49 -39 0 -28 -18 -46 -45 -46 -23 0 -55 28 -55 48 0 7 -4 12 -10 12 -5 0
-10 -18 -10 -40 0 -22 5 -40 10 -40 6 0 10 5 10 10 0 7 6 7 19 0 32 -16 60
-12 86 15 47 46 26 105 -42 120 -64 13 -66 65 -2 65 22 0 30 -6 35 -25 9 -36
24 -31 24 8 0 33 -1 34 -43 35 -25 1 -52 -4 -65 -14z"/>
<path d="M2040 1020 c0 -5 7 -10 15 -10 12 0 15 -17 15 -95 0 -78 -3 -95 -15
-95 -8 0 -15 -5 -15 -11 0 -6 7 -8 16 -5 9 3 47 6 85 6 l69 0 0 35 c0 19 -4
35 -10 35 -5 0 -10 -8 -10 -18 0 -26 -20 -42 -52 -42 -27 0 -28 2 -28 50 0 55
18 68 38 28 9 -20 11 -18 11 22 0 39 -1 43 -13 28 -22 -30 -36 -21 -36 23 0
39 1 40 33 37 24 -2 33 -8 35 -25 5 -36 22 -27 22 12 l0 35 -80 0 c-47 0 -80
-4 -80 -10z"/>
<path d="M826 677 c-14 -15 -26 -32 -26 -39 0 -26 30 -55 74 -72 37 -14 46
-22 46 -42 0 -36 -41 -52 -75 -30 -14 9 -25 23 -25 31 0 8 -4 15 -10 15 -5 0
-10 -15 -10 -33 0 -33 0 -33 54 -35 48 -2 57 1 75 24 12 15 21 34 21 43 0 30
-30 60 -71 71 -45 12 -59 34 -36 57 20 20 67 9 74 -17 8 -30 23 -24 23 10 0
19 -5 30 -14 30 -7 0 -27 3 -44 6 -24 5 -36 1 -56 -19z"/>
<path d="M1244 690 c-39 -15 -64 -59 -64 -110 0 -121 140 -153 186 -43 26 61
-2 131 -63 154 -28 11 -31 11 -59 -1z m70 -32 c24 -34 21 -133 -4 -158 -24
-24 -43 -25 -64 -5 -30 31 -33 137 -5 171 17 21 56 17 73 -8z"/>
<path d="M2110 693 c-54 -20 -89 -93 -71 -145 18 -52 49 -78 93 -78 40 0 78
27 78 55 0 8 7 15 15 15 8 0 15 5 15 10 0 6 -25 10 -55 10 -30 0 -55 -4 -55
-10 0 -5 9 -10 20 -10 13 0 20 -7 20 -19 0 -47 -63 -51 -81 -4 -14 38 -11 116
7 141 8 12 25 22 38 22 24 0 56 -28 56 -48 0 -7 5 -12 10 -12 6 0 10 15 10 34
0 27 -4 35 -17 34 -10 0 -29 2 -43 5 -14 3 -32 3 -40 0z"/>
<path d="M973 683 c15 -4 17 -17 17 -99 0 -77 -3 -94 -15 -94 -8 0 -15 -4 -15
-10 0 -5 20 -10 45 -10 25 0 45 5 45 10 0 6 -4 10 -10 10 -5 0 -10 20 -10 45
0 45 0 45 35 45 35 0 35 0 35 -45 0 -33 -4 -45 -15 -45 -8 0 -15 -4 -15 -10 0
-5 23 -10 50 -10 28 0 50 5 50 10 0 6 -7 10 -15 10 -12 0 -15 17 -15 94 0 82
2 95 18 99 9 3 -8 5 -38 5 -30 0 -47 -2 -37 -5 13 -3 17 -15 17 -47 l0 -42
-35 4 c-33 4 -35 6 -35 42 0 28 5 40 18 43 9 3 -8 5 -38 5 -30 0 -47 -2 -37
-5z"/>
<path d="M1393 679 c14 -8 17 -25 17 -99 0 -73 -3 -90 -15 -90 -8 0 -15 -4
-15 -10 0 -5 20 -10 45 -10 25 0 45 5 45 10 0 6 -4 10 -10 10 -5 0 -10 18 -10
40 0 37 2 40 28 40 35 0 62 27 62 62 0 42 -28 58 -101 58 -48 -1 -60 -3 -46
-11z m96 -8 c32 -21 12 -90 -26 -91 -9 0 -13 17 -13 50 0 51 9 60 39 41z"/>
<path d="M1563 683 c15 -4 17 -17 17 -99 0 -77 -3 -94 -15 -94 -8 0 -15 -4
-15 -10 0 -5 20 -10 45 -10 25 0 45 5 45 10 0 6 -7 10 -15 10 -11 0 -15 11
-15 40 0 38 2 40 30 40 33 0 70 30 70 58 0 10 -7 28 -16 40 -13 19 -24 22 -82
21 -37 -1 -59 -3 -49 -6z m91 -9 c19 -7 22 -64 4 -82 -7 -7 -20 -12 -30 -12
-15 0 -18 9 -18 50 0 51 7 58 44 44z"/>
<path d="M1733 683 c15 -4 17 -17 17 -99 0 -77 -3 -94 -15 -94 -8 0 -15 -4
-15 -10 0 -5 23 -10 50 -10 28 0 50 5 50 10 0 6 -7 10 -15 10 -12 0 -15 17
-15 94 0 82 2 95 18 99 9 3 -8 5 -38 5 -30 0 -47 -2 -37 -5z"/>
<path d="M1838 683 c15 -6 17 -193 2 -193 -5 0 -10 -4 -10 -10 0 -5 16 -10 35
-10 19 0 35 5 35 10 0 6 -7 10 -15 10 -12 0 -15 16 -15 83 l0 82 56 -92 c30
-51 59 -93 65 -93 5 0 9 45 9 104 0 91 2 105 18 109 9 3 -3 5 -28 5 -25 0 -38
-2 -29 -5 13 -3 18 -20 21 -66 3 -34 4 -63 3 -65 -2 -2 -22 28 -45 67 -40 68
-44 71 -79 70 -20 0 -30 -3 -23 -6z"/>
</g>
</svg>
